<svg width="64" height="64" viewBox="0 0 64 64" fill="none" xmlns="http://www.w3.org/2000/svg">
<path d="M24 40V48C24 52.4183 20.4183 56 16 56C11.5817 56 8 52.4183 8 48C8 43.5817 11.5817 40 16 40H24ZM24 40H40M24 40V24M40 40V48C40 52.4183 43.5817 56 48 56C52.4183 56 56 52.4183 56 48C56 43.5817 52.4183 40 48 40H40ZM40 40V24M40 24H24M40 24V16C40 11.5817 43.5817 8 48 8C52.4183 8 56 11.5817 56 16C56 20.4183 52.4183 24 48 24H40ZM24 24V16C24 11.5817 20.4183 8 16 8C11.5817 8 8 11.5817 8 16C8 20.4183 11.5817 24 16 24H24Z" stroke="white" stroke-width="2" stroke-linecap="round" stroke-linejoin="round"/>
</svg>
