<svg width="204" height="25" viewBox="0 0 204 25" fill="none" xmlns="http://www.w3.org/2000/svg">
<path d="M202.762 24.48C202.366 24.732 201.988 24.81 201.628 24.714C201.268 24.618 200.962 24.372 200.71 23.976L195.13 14.688H190.09V22.896C190.09 23.904 189.586 24.408 188.578 24.408C187.57 24.408 187.066 23.904 187.066 22.896V1.512C187.066 0.503999 187.57 0 188.578 0H197.002C199.198 0 200.878 0.588 202.042 1.764C203.218 2.928 203.806 4.608 203.806 6.804V7.884C203.806 9.792 203.362 11.316 202.474 12.456C201.586 13.584 200.302 14.286 198.622 14.562L203.338 22.428C203.794 23.268 203.602 23.952 202.762 24.48ZM190.09 11.664H197.002C198.37 11.664 199.342 11.376 199.918 10.8C200.494 10.224 200.782 9.252 200.782 7.884V6.804C200.782 5.448 200.494 4.482 199.918 3.906C199.342 3.318 198.37 3.024 197.002 3.024H190.09V11.664Z" fill="white"/>
<path d="M150.688 24.408C149.68 24.408 149.176 23.904 149.176 22.896V1.512C149.176 0.503999 149.68 0 150.688 0H163.612C164.62 0 165.124 0.503999 165.124 1.512C165.124 2.52 164.62 3.024 163.612 3.024H152.2V10.584H159.364C160.372 10.584 160.876 11.088 160.876 12.096C160.876 13.104 160.372 13.608 159.364 13.608H152.2V21.384H163.612C164.62 21.384 165.124 21.888 165.124 22.896C165.124 23.904 164.62 24.408 163.612 24.408H150.688Z" fill="white"/>
<path d="M115.01 24.408C114.002 24.408 113.498 23.904 113.498 22.896V1.512C113.498 0.503999 114.002 0 115.01 0C116.018 0 116.522 0.503999 116.522 1.512V21.384H126.494C127.502 21.384 128.006 21.888 128.006 22.896C128.006 23.904 127.502 24.408 126.494 24.408H115.01Z" fill="white"/>
<path d="M76.7327 24.408C75.7247 24.408 75.2207 23.904 75.2207 22.896V1.512C75.2207 0.503999 75.7247 0 76.7327 0H85.1567C87.3527 0 89.0327 0.588 90.1967 1.764C91.3727 2.928 91.9607 4.608 91.9607 6.804V7.884C91.9607 10.08 91.3727 11.766 90.1967 12.942C89.0327 14.106 87.3527 14.688 85.1567 14.688H78.2447V22.896C78.2447 23.904 77.7407 24.408 76.7327 24.408ZM78.2447 11.664H85.1567C86.5247 11.664 87.4967 11.376 88.0727 10.8C88.6487 10.224 88.9367 9.252 88.9367 7.884V6.804C88.9367 5.448 88.6487 4.482 88.0727 3.906C87.4967 3.318 86.5247 3.024 85.1567 3.024H78.2447V11.664Z" fill="white"/>
<path d="M38.8401 24.408C37.8321 24.408 37.3281 23.904 37.3281 22.896V1.512C37.3281 0.503999 37.8321 0 38.8401 0H51.7641C52.7721 0 53.2761 0.503999 53.2761 1.512C53.2761 2.52 52.7721 3.024 51.7641 3.024H40.3521V10.584H47.5161C48.5241 10.584 49.0281 11.088 49.0281 12.096C49.0281 13.104 48.5241 13.608 47.5161 13.608H40.3521V21.384H51.7641C52.7721 21.384 53.2761 21.888 53.2761 22.896C53.2761 23.904 52.7721 24.408 51.7641 24.408H38.8401Z" fill="white"/>
<path d="M1.512 24.408C0.504 24.408 0 23.904 0 22.896V1.512C0 0.503999 0.504 0 1.512 0C2.52 0 3.024 0.503999 3.024 1.512V10.062L12.204 0.575998C12.9 -0.168001 13.608 -0.18 14.328 0.539999C15.072 1.236 15.084 1.944 14.364 2.664L6.714 10.566L15.732 21.78C16.344 22.584 16.272 23.292 15.516 23.904C14.736 24.54 14.028 24.468 13.392 23.688L4.59 12.78L3.024 14.4V22.896C3.024 23.904 2.52 24.408 1.512 24.408Z" fill="white"/>
</svg>
